<?xml version="1.0" encoding="utf-8"?>
<!-- Generator: Adobe Illustrator 16.0.0, SVG Export Plug-In . SVG Version: 6.00 Build 0)  -->
<!DOCTYPE svg PUBLIC "-//W3C//DTD SVG 1.1//EN" "http://www.w3.org/Graphics/SVG/1.1/DTD/svg11.dtd">
<svg version="1.1" id="Layer_1" xmlns="http://www.w3.org/2000/svg" xmlns:xlink="http://www.w3.org/1999/xlink" x="0px" y="0px"
	 width="630px" height="100px" viewBox="0 0 630 100" enable-background="new 0 0 630 100" xml:space="preserve">
<g>
	<circle fill-rule="evenodd" clip-rule="evenodd" fill="#5F3011" cx="47.833" cy="50.333" r="47.833"/>
	
		<circle fill-rule="evenodd" clip-rule="evenodd" fill="none" stroke="#FFFFFF" stroke-miterlimit="10" cx="47.833" cy="50.333" r="43.5"/>
	<g>
		<path fill-rule="evenodd" clip-rule="evenodd" fill="#FFFFFF" d="M33.045,62.596c0.094-0.692,0.207-1.386,0.28-2.084
			c0.155-1.473,0.376-2.944,0.402-4.421c0.02-1.154-0.185-2.317-0.342-3.469c-0.283-2.073-0.645-4.137-0.898-6.213
			c-0.161-1.321-0.113-2.66,0.086-3.978c0.36-2.373,0.763-4.737,1.139-7.108c0.037-0.231,0.116-0.293,0.357-0.27
			c2.518,0.249,4.481,1.498,6.081,3.38c1.802,2.121,2.805,4.611,3.254,7.331c0.573,3.456,0.242,6.825-1.151,10.058
			c-0.941,2.181-2.298,4.048-4.294,5.394c-1.373,0.925-2.885,1.424-4.55,1.428c-0.082,0.002-0.164-0.001-0.246-0.007
			C33.134,62.634,33.106,62.617,33.045,62.596z"/>
		<path fill-rule="evenodd" clip-rule="evenodd" fill="#FFFFFF" d="M30.685,35.066c-0.144,0.764-0.295,1.503-0.422,2.246
			c-0.397,2.327-0.79,4.655-0.88,7.021c-0.066,1.714,0.163,3.405,0.444,5.092c0.292,1.742,0.599,3.482,0.853,5.231
			c0.176,1.21,0.077,2.43-0.083,3.637c-0.189,1.438-0.407,2.87-0.615,4.327c-0.73-0.021-1.416-0.157-2.083-0.383
			c-2.115-0.72-3.714-2.106-4.976-3.909c-1.601-2.288-2.433-4.856-2.712-7.62c-0.29-2.875,0.043-5.669,1.105-8.363
			c0.867-2.198,2.139-4.112,4.038-5.561c1.419-1.082,3.015-1.7,4.812-1.756c0.133-0.004,0.266-0.001,0.398,0.003
			C30.595,35.031,30.624,35.048,30.685,35.066z"/>
	</g>
	<g>
		<path fill-rule="evenodd" clip-rule="evenodd" fill="#FFFFFF" d="M66.379,62.596c0.095-0.692,0.206-1.386,0.28-2.084
			c0.154-1.473,0.376-2.944,0.402-4.421c0.02-1.154-0.186-2.317-0.343-3.469c-0.283-2.073-0.645-4.137-0.897-6.213
			c-0.161-1.321-0.113-2.66,0.086-3.978c0.359-2.373,0.762-4.737,1.139-7.108c0.037-0.231,0.115-0.293,0.357-0.27
			c2.518,0.249,4.48,1.498,6.08,3.38c1.802,2.121,2.805,4.611,3.254,7.331c0.573,3.456,0.242,6.825-1.151,10.058
			c-0.941,2.181-2.298,4.048-4.294,5.394c-1.373,0.925-2.885,1.424-4.551,1.428c-0.082,0.002-0.164-0.001-0.245-0.007
			C66.468,62.634,66.44,62.617,66.379,62.596z"/>
		<path fill-rule="evenodd" clip-rule="evenodd" fill="#FFFFFF" d="M64.019,35.066c-0.144,0.764-0.295,1.503-0.422,2.246
			c-0.396,2.327-0.789,4.655-0.88,7.021c-0.066,1.714,0.163,3.405,0.444,5.092c0.292,1.742,0.599,3.482,0.853,5.231
			c0.176,1.21,0.077,2.43-0.083,3.637c-0.189,1.438-0.407,2.87-0.615,4.327c-0.73-0.021-1.416-0.157-2.082-0.383
			c-2.115-0.72-3.715-2.106-4.977-3.909c-1.601-2.288-2.434-4.856-2.712-7.62c-0.29-2.875,0.044-5.669,1.105-8.363
			c0.866-2.198,2.139-4.112,4.038-5.561c1.419-1.082,3.016-1.7,4.812-1.756c0.133-0.004,0.266-0.001,0.398,0.003
			C63.929,35.031,63.958,35.048,64.019,35.066z"/>
	</g>
</g>
<g>
	<circle fill-rule="evenodd" clip-rule="evenodd" fill="#5F3011" cx="582.167" cy="49.734" r="47.833"/>
	
		<circle fill-rule="evenodd" clip-rule="evenodd" fill="none" stroke="#FFFFFF" stroke-miterlimit="10" cx="582.166" cy="49.734" r="43.5"/>
	<g>
		<path fill-rule="evenodd" clip-rule="evenodd" fill="#FFFFFF" d="M559.378,64.596c0.095-0.692,0.206-1.386,0.28-2.084
			c0.154-1.473,0.376-2.944,0.402-4.421c0.02-1.154-0.186-2.317-0.343-3.469c-0.283-2.073-0.645-4.137-0.897-6.213
			c-0.161-1.321-0.113-2.66,0.086-3.978c0.359-2.373,0.762-4.737,1.139-7.108c0.037-0.231,0.115-0.293,0.357-0.27
			c2.518,0.249,4.48,1.498,6.08,3.38c1.802,2.121,2.805,4.611,3.254,7.331c0.573,3.456,0.242,6.825-1.151,10.058
			c-0.941,2.181-2.298,4.048-4.294,5.394c-1.373,0.925-2.885,1.424-4.551,1.428c-0.082,0.002-0.164-0.001-0.245-0.007
			C559.467,64.634,559.439,64.617,559.378,64.596z"/>
		<path fill-rule="evenodd" clip-rule="evenodd" fill="#FFFFFF" d="M557.018,37.066c-0.144,0.764-0.295,1.503-0.422,2.246
			c-0.396,2.327-0.789,4.655-0.88,7.021c-0.066,1.714,0.163,3.405,0.444,5.092c0.292,1.742,0.599,3.482,0.853,5.231
			c0.176,1.21,0.077,2.43-0.083,3.637c-0.189,1.438-0.407,2.87-0.615,4.327c-0.73-0.021-1.416-0.157-2.082-0.383
			c-2.115-0.72-3.715-2.106-4.977-3.909c-1.601-2.288-2.434-4.856-2.712-7.62c-0.29-2.875,0.044-5.669,1.105-8.363
			c0.866-2.198,2.139-4.112,4.038-5.561c1.419-1.082,3.016-1.7,4.812-1.756c0.133-0.004,0.266-0.001,0.398,0.003
			C556.928,37.031,556.957,37.048,557.018,37.066z"/>
	</g>
	<g>
		<path fill-rule="evenodd" clip-rule="evenodd" fill="#FFFFFF" d="M583.051,38.228c0.094-0.692,0.206-1.386,0.279-2.084
			c0.154-1.473,0.376-2.944,0.402-4.421c0.02-1.154-0.186-2.317-0.343-3.47c-0.282-2.072-0.644-4.136-0.897-6.213
			c-0.16-1.32-0.114-2.659,0.086-3.977c0.36-2.373,0.763-4.738,1.139-7.108c0.037-0.232,0.116-0.293,0.356-0.27
			c2.519,0.249,4.482,1.498,6.081,3.38c1.802,2.121,2.805,4.611,3.255,7.331c0.573,3.456,0.242,6.825-1.152,10.058
			c-0.94,2.181-2.298,4.048-4.294,5.394c-1.372,0.925-2.885,1.424-4.55,1.428c-0.082,0.002-0.164-0.001-0.246-0.007
			C583.14,38.266,583.111,38.249,583.051,38.228z"/>
		<path fill-rule="evenodd" clip-rule="evenodd" fill="#FFFFFF" d="M580.69,10.698c-0.145,0.764-0.296,1.503-0.422,2.246
			c-0.397,2.327-0.79,4.655-0.881,7.021c-0.065,1.714,0.163,3.405,0.444,5.091c0.292,1.743,0.599,3.483,0.853,5.232
			c0.176,1.21,0.077,2.43-0.083,3.637c-0.189,1.438-0.407,2.87-0.615,4.327c-0.73-0.021-1.415-0.157-2.082-0.383
			c-2.115-0.72-3.715-2.106-4.977-3.909c-1.6-2.289-2.433-4.856-2.711-7.62c-0.291-2.875,0.043-5.67,1.105-8.363
			c0.865-2.198,2.138-4.112,4.037-5.561c1.419-1.082,3.016-1.7,4.812-1.756c0.133-0.004,0.266-0.001,0.398,0.003
			C580.601,10.663,580.629,10.68,580.69,10.698z"/>
	</g>
	<g>
		<path fill-rule="evenodd" clip-rule="evenodd" fill="#FFFFFF" d="M583.051,89.472c0.094-0.692,0.206-1.387,0.279-2.085
			c0.154-1.472,0.376-2.944,0.402-4.42c0.02-1.155-0.186-2.318-0.343-3.47c-0.282-2.072-0.644-4.137-0.897-6.213
			c-0.16-1.32-0.114-2.659,0.086-3.977c0.36-2.373,0.763-4.738,1.139-7.108c0.037-0.232,0.116-0.293,0.356-0.271
			c2.519,0.25,4.482,1.499,6.081,3.381c1.802,2.12,2.805,4.611,3.255,7.331c0.573,3.456,0.242,6.824-1.152,10.058
			c-0.94,2.181-2.298,4.048-4.294,5.393c-1.372,0.926-2.885,1.425-4.55,1.429c-0.082,0.002-0.164-0.001-0.246-0.007
			C583.14,89.51,583.111,89.493,583.051,89.472z"/>
		<path fill-rule="evenodd" clip-rule="evenodd" fill="#FFFFFF" d="M580.69,61.942c-0.145,0.764-0.296,1.503-0.422,2.246
			c-0.397,2.327-0.79,4.655-0.881,7.021c-0.065,1.713,0.163,3.404,0.444,5.091c0.292,1.743,0.599,3.483,0.853,5.232
			c0.176,1.21,0.077,2.43-0.083,3.637c-0.189,1.437-0.407,2.87-0.615,4.327c-0.73-0.021-1.415-0.157-2.082-0.383
			c-2.115-0.721-3.715-2.106-4.977-3.909c-1.6-2.289-2.433-4.857-2.711-7.62c-0.291-2.875,0.043-5.67,1.105-8.363
			c0.865-2.199,2.138-4.112,4.037-5.561c1.419-1.082,3.016-1.7,4.812-1.757c0.133-0.003,0.266,0,0.398,0.003
			C580.601,61.907,580.629,61.923,580.69,61.942z"/>
	</g>
	<g>
		<path fill-rule="evenodd" clip-rule="evenodd" fill="#FFFFFF" d="M605.723,64.596c0.094-0.692,0.206-1.386,0.279-2.084
			c0.154-1.473,0.376-2.944,0.402-4.421c0.02-1.154-0.186-2.317-0.343-3.469c-0.282-2.073-0.644-4.137-0.897-6.213
			c-0.16-1.321-0.114-2.66,0.086-3.978c0.36-2.373,0.763-4.737,1.139-7.108c0.037-0.231,0.116-0.293,0.356-0.27
			c2.519,0.249,4.482,1.498,6.081,3.38c1.802,2.121,2.805,4.611,3.255,7.331c0.573,3.456,0.242,6.825-1.153,10.058
			c-0.939,2.181-2.297,4.048-4.293,5.394c-1.372,0.925-2.885,1.424-4.55,1.428c-0.082,0.002-0.165-0.001-0.246-0.007
			C605.812,64.634,605.783,64.617,605.723,64.596z"/>
		<path fill-rule="evenodd" clip-rule="evenodd" fill="#FFFFFF" d="M603.362,37.066c-0.145,0.764-0.296,1.503-0.423,2.246
			c-0.396,2.327-0.788,4.655-0.88,7.021c-0.065,1.714,0.163,3.405,0.444,5.092c0.292,1.742,0.599,3.482,0.853,5.231
			c0.177,1.21,0.077,2.43-0.083,3.637c-0.189,1.438-0.406,2.87-0.615,4.327c-0.73-0.021-1.415-0.157-2.083-0.383
			c-2.114-0.72-3.714-2.106-4.976-3.909c-1.601-2.288-2.433-4.856-2.711-7.62c-0.29-2.875,0.043-5.669,1.104-8.363
			c0.867-2.198,2.139-4.112,4.039-5.561c1.418-1.082,3.014-1.7,4.812-1.756c0.133-0.004,0.267-0.001,0.399,0.003
			C603.272,37.031,603.301,37.048,603.362,37.066z"/>
	</g>
</g>
</svg>
