<?xml version="1.0" encoding="utf-8"?>
<!-- Generator: Adobe Illustrator 16.0.0, SVG Export Plug-In . SVG Version: 6.00 Build 0)  -->
<!DOCTYPE svg PUBLIC "-//W3C//DTD SVG 1.1//EN" "http://www.w3.org/Graphics/SVG/1.1/DTD/svg11.dtd">
<svg version="1.1" xmlns="http://www.w3.org/2000/svg" xmlns:xlink="http://www.w3.org/1999/xlink" x="0px" y="0px" width="1000px"
	 height="390px" viewBox="0 0 1000 390" enable-background="new 0 0 1000 390" xml:space="preserve">
<g id="Layer_2">
</g>
<g id="Layer_1">
	<g>
		<path fill="#5A3314" d="M49.107,92.282c-2.281-0.766-1.13,2.944-3.402,3.396c-2.266,0.46-4.987,1.592-3.17,2.05
			c1.813,0.448,5.889-0.229,6.349-0.912C49.337,96.139,49.788,92.508,49.107,92.282z"/>
		<path fill="#5A3314" d="M31.646,97.271c-2.722-0.223-5.448,0-5.896,0.905c-0.462,0.912,2.492,1.592,4.305,1.592
			c1.813,0,5.44-1.14,4.767-1.362C34.137,98.176,31.646,97.271,31.646,97.271z"/>
		<path fill="#5A3314" d="M46.614,77.536c-0.92,0.278,1.585,1.814,2.493,1.814c0.911,0,2.499-2.495,0.681-2.495
			C47.977,76.855,48.884,76.855,46.614,77.536z"/>
		<path fill="#5A3314" d="M54.549,58.935c0,0,0,0,1.366,1.138c1.357,1.13,3.626,1.582,5.667,1.812
			c2.049,0.229,2.049-1.13,0.457-2.491c-1.585-1.359-2.045-1.141-3.404-1.359c-1.362-0.232-1.586-1.591-5.211-1.591
			c-3.636,0-3.179-1.812-3.636-2.722c-0.45-0.911,3.177-0.458,4.089-0.232c0.907,0.232,4.529-2.725,4.529-2.725
			s5.902-2.26,6.58-1.811c0.686,0.453,4.085-0.449,5.672-0.907c1.591-0.45,2.495-2.947,2.495-2.947s2.044,0.685,3.179,1.815
			c1.131,1.132,3.631,0,4.309,0c0.679,0,4.083,2.27,4.083,2.27s4.536,0,6.35-0.231c1.817-0.228,6.579-0.228,8.395,0.231
			c1.812,0.452,9.978,0.902,10.89,0.902c0.904,0,5.435,1.589,8.386,0.906c2.957-0.678,4.312,0.457,4.995,0.683
			c0.673,0.229,1.356,0.229,2.496,1.587c1.132,1.368,2.265,0.226,3.857-0.679c1.583-0.908,1.359-1.82,1.359-1.82s0,0,1.361-0.223
			c1.362-0.226,2.266,0.452,6.124,0.685c3.856,0.224,2.948-0.685,5.667-1.589c2.723-0.911,5.448,1.127,6.355,0.905
			c0.903-0.226,2.04-2.037,2.722-1.135c0.682,0.909,1.81,2.727,1.81,2.727s2.952-2.266,3.856-2.266c0.907,0,3.635,0.896,5.223,0.673
			c1.585-0.226,7.709-0.226,9.072,0.908c1.356,1.135,4.76,0.907,6.574,2.039c1.814,1.142,3.632-0.904,2.724-1.355
			c-0.91-0.458-3.176-2.266-3.176-2.266s-3.404-4.084-3.857-4.769c-0.448-0.677-1.132-0.677-2.038,1.136
			c-0.91,1.811-4.309,1.811-8.168,2.04c-3.852,0.229-1.359-1.811-5.669-2.04c-4.31-0.229-2.717-1.813-1.361-1.813
			c1.361,0,2.266-2.727,2.717-4.314c0.46-1.59,2.044-1.362,5.223-1.135c3.167,0.229,4.08-0.456,7.258,0
			c3.174,0.457,2.948-1.356,6.122-1.134c3.175,0.229,1.588,0.678,3.406,1.818c1.814,1.131,2.946,0.905,5.438,2.038
			c2.497,1.135,1.593,1.135,2.728,1.367c1.134,0.223,4.991-0.458,7.252-0.685c2.27-0.223,4.09-0.459,5.224,0.908
			c1.134,1.359,0.908,2.95,2.499,4.081c1.584,1.138-0.913-4.081-0.913-5.894c0-1.815,3.176-0.231,5.219-0.231
			c2.042,0,4.305-0.679,4.76,0.231c0.458,0.905-2.946,2.269-0.907,4.311c2.044,2.044,3.404,2.72,5.216,2.72
			c1.814,0,5.897,0.449,4.084,2.945c-1.813,2.495-6.573,2.271-8.162,2.271s-4.314,0.91-3.629,2.268
			c0.681,1.361,4.31,0.679,6.801,0.679c2.499,0,10.205,0.682,12.246,0c2.045-0.679,1.591-3.405-0.679-4.083
			c-2.267-0.679-0.454-2.043,1.818-1.591c2.272,0.457,4.534-0.678,4.081,0c-0.453,0.683,0.231,2.27,0.231,4.087
			c0,1.814,0.674,2.955,2.261,2.492c1.592-0.45,1.819-0.678,3.405-0.904c1.591-0.225,0.683-4.083-0.231-6.126
			c-0.895-2.037-1.582-3.175-1.355-4.306c0.228-1.136,2.723-1.361,4.08-0.229c1.363,1.135,3.177,3.399,3.177,3.399
			s2.723,1.586,3.631,3.403c0.909,1.821,1.132,1.366,2.948,0.226c1.814-1.131,2.266-0.902,3.856,0.227
			c1.591,1.138,0.452,3.405,0.452,4.087c0,0.685,2.272,0,2.72-1.361c0.459-1.358,2.274-1.358,3.411-1.813
			c1.129-0.455,1.129-3.183,1.129-3.183s-2.95-0.678-5.898-0.452c-2.944,0.223-3.856-0.226-6.118-1.815
			c-2.27-1.583-0.914-2.719-2.048-4.304c-1.134-1.591,3.632-2.503,6.578-3.86c2.946-1.36,5.896-0.455,5.22,2.949
			c-0.684,3.404-1.132,2.954,2.266,2.273c3.404-0.685-0.231-3.629,1.36-3.865c1.59-0.223,5.67-0.903,7.035-0.677
			c1.359,0.231,8.839-0.679,10.662-0.679c1.813,0,4.757,1.592,6.799,2.723c2.044,1.137,7.489,2.722,8.847,3.399
			c1.358,0.682,10.887,2.041,11.795,2.269c0.912,0.231,0.912,2.952,1.814,5.223c0.916,2.267,3.408,0.681,4.31,0.681
			c0.909,0,4.086,1.586,4.992,2.715c0.905,1.143,7.714,2.042,7.714,2.042s-1.586,2.041-2.272,2.721
			c-0.678,0.684-2.269,1.135-3.623,2.047c-1.367,0.905-2.955-0.229-4.771-1.364c-1.812-1.134-4.992-1.816-5.667-1.364
			c-0.684,0.459-0.224,1.364,0.231,2.041c0.443,0.688,3.395,1.592,5.212,2.956c1.814,1.362,1.36,2.722,1.588,4.534
			c0.226,1.817-1.816-0.681-4.083-1.133c-2.273-0.452-2.495,1.81-2.495,1.81s-2.951-0.222-4.31-0.222c-1.362,0,0,0-2.495-1.818
			c-2.494-1.808-2.042,1.14-3.403,0.23c-1.357-0.91-2.719-2.271-3.405-1.816c-0.681,0.456-2.946-2.04-4.313-1.812
			c-1.358,0.228-6.796-0.688-8.152-0.228c-1.37,0.455-2.5,0.455-3.638,0.907c-1.137,0.456-1.586-3.177-0.905-4.31
			c0.677-1.138,2.269-1.36,5.218-0.679c2.941,0.679,3.173,0,3.855-1.14c0.682-1.13,1.356-2.258,4.532-3.171
			c3.184-0.909-0.222-1.589-1.127-2.041c-0.911-0.455-2.049-1.361-2.723,0c-0.682,1.36-2.267,2.953-2.267,2.953s-1.819,0-4.315-0.23
			c-2.496-0.231-0.678-1.135,0.458-1.591c1.129-0.451,2.495-3.173,1.355-3.858c-1.131-0.679-1.587-1.131-3.626-0.679
			c-2.041,0.453-0.683-1.593-2.041-2.27c-1.359-0.68-0.913,0.455-0.913,1.363c0,0.907-2.04,0.684-2.04,0.684s-3.177-0.458-4.307,0
			c-1.134,0.451-3.175,1.355-2.493,2.042c0.679,0.681,2.944,0.681,3.623,2.718c0.681,2.041-2.944,2.5-3.623,2.72
			c-0.682,0.229-3.405,1.141-3.405,1.141s-2.722-0.682-4.99-0.682c-2.266,0-2.95,0.223-2.492,1.13
			c0.452,0.911,1.586,0.452,2.261,0.452c0.681,0,0.681,1.138,2.726,0.681c2.044-0.451,1.591-1.133,3.4,0.684
			c1.818,1.813,3.634,1.585,6.581,3.177c2.946,1.585-0.458,3.404-2.042,3.404c-1.587,0-1.587-1.364-2.494-2.72
			c-0.909-1.369-4.535,0.223-4.535,0.223s-2.954,1.589-4.533,1.589c-1.59,0-2.729-0.229-0.685-1.812
			c2.042-1.592-2.496-1.823-2.496-4.087c0-2.269-0.906,2.264-0.906,3.403c0,1.13-1.812,0.228-5.674,0.684
			c-3.852,0.446-3.174,1.812-8.165,4.982c-4.994,3.18-6.121,3.861-5.672,6.812c0.458,2.945,1.592,2.04,3.632,2.493
			c2.04,0.452,1.355,3.854,2.947,3.625c1.591-0.224,2.723-1.362,5.901,0.229c3.174,1.587,4.76,2.043,8.617,2.72
			c3.857,0.678,6.35,1.819,8.398,1.364c2.04-0.456,3.4,0.226,3.4,1.814c0,1.59,1.359,1.816,1.131,3.858
			c-0.226,2.04,2.5-1.82,2.5-1.82s1.126,3.413,0.218,3.859c-0.901,0.455,0.23,2.494,1.364,2.272c1.134-0.231,2.729,0.68,4.082-0.46
			c1.364-1.128-0.676-4.529-0.676-5.894c0-1.358-1.367-2.042-2.043-3.404c-0.683-1.361,1.812-1.59,2.719-0.226
			c0.915,1.36,2.497,0.226,4.084-0.912c1.587-1.129,1.587-3.172,1.587-3.172s-2.717-3.63-4.757-4.534
			c-2.047-0.91-1.145-1.136,0.895-1.587c2.048-0.457,0-1.135,0.459-3.631c0.455-2.498,0.455-4.083,1.589-4.083
			c1.136,0,5.216-0.681,8.617-0.452c3.406,0.229,4.994,2.717,7.264,2.949c2.264,0.219,5.892,0.679,6.574,1.811
			c0.68,1.133-2.496,1.362-0.902,3.181c1.582,1.812,1.811,1.585,3.398,2.268c1.588,0.677,3.397,0.225,5.446-2.5
			c2.045-2.72,2.943-2.949,3.62-2.495c0.688,0.454,5,5.443,6.132,6.581c1.133,1.131,3.398,3.62,3.625,4.763
			c0.231,1.127,3.405,1.127,4.309,1.127c0.91,0,4.311,2.5,4.763,3.864c0.459,1.359,1.365,1.816,4.31,2.494
			c2.952,0.679,0,3.17-0.677,4.534c-0.682,1.364-1.134,1.816-2.039,3.402c-0.907,1.59,0,0,1.128,0.68
			c1.137,0.685,1.588,1.586,3.406,1.138c1.816-0.453,2.72,0,3.402,1.362c0.68,1.363,1.588,2.495,2.27,3.623
			c0.675,1.138,0,2.952-0.913,1.821c-0.901-1.139-3.858-0.46-3.858-0.46s-1.354,1.361-1.808,0.682
			c-0.452-0.682-1.363-1.582-2.952-1.133c-1.583,0.452-3.17,0-4.987,0.229c-1.819,0.223-2.497-0.907-1.361-1.817
			c1.135-0.901,1.361-4.306,3.626-5.669c2.271-1.359,1.59-3.399,0-3.399c-1.587,0-2.265,2.04-3.174,2.496
			c-0.91,0.449-2.722,0.449-4.314,1.585c-1.584,1.13-5.441,0.682-3.85,1.13c1.589,0.459-2.269,2.277-3.631,2.277
			c-1.364,0-0.908-2.953-0.908-4.088c0-1.135-1.812,0.682-1.812,0.682s-3.631-2.041-4.992-0.682
			c-1.365,1.364-3.406,2.042-4.988,3.404c-1.591,1.365-5.218,3.626-5.218,3.626s1.361-0.682,4.084-1.361
			c2.716-0.678,2.496-0.449,4.757-1.581c2.273-1.137,4.541-1.591,6.129,0.452c1.584,2.04-0.677,3.169-0.677,3.169
			s0.904,1.591,1.809,2.043c0.908,0.456,1.135-0.452,2.722-1.361c1.588-0.904,0.908,1.817,1.364,2.723
			c0.454,0.907,2.039,0.907,2.95-0.226c0.902-1.136,1.583-2.04,2.26-1.359c0.682,0.679,1.371,2.266,2.045,3.854
			c0.681,1.592-4.762,2.044-5.669,2.269c-0.902,0.228-5.221,1.138-5.896,1.366c-0.681,0.222-2.943,2.259-4.764,2.259
			c-1.814,0-1.594-2.718-1.814-4.301c-0.23-1.592-2.5,0.223-2.72,0.904c-0.228,0.68-2.27,0.456-3.859,0.68
			c-1.586,0.23-4.308,1.817-4.308,3.628c0,1.815,2.04,2.724,1.361,3.628c-0.679,0.911-4.766,1.592-6.351,1.139
			c-1.587-0.458-3.857,0.679-3.175,1.587c0.676,0.905,0.229,2.266-1.362,2.042c-1.59-0.229-1.814,1.362-1.132,2.493
			c0.674,1.131-2.044,3.398-2.727,2.493c-0.677-0.904-2.042-1.362-2.042,0c0,1.361,0.453,2.497,1.817,4.312
			c1.356,1.814-2.948,2.954-4.535,4.314c-1.592,1.359-7.034,5.894-9.297,6.799c-2.271,0.907-2.271,3.861-1.139,4.986
			c1.139,1.143,2.496,5.899,3.18,7.491c0.676,1.59-0.231,6.121-2.272,5.898c-2.04-0.227-0.908-2.949-2.947-3.633
			c-2.044-0.676-3.177-4.758-3.631-7.485c-0.452-2.721-0.905-1.129-2.27-0.232c-1.36,0.915-2.72-1.807-3.4-2.488
			c-0.678-0.676-4.536,0.449-7.258,0.23c-2.72-0.23-3.63,1.132-3.63,1.811c0,0.68-0.448,2.719-2.948,1.362
			c-2.492-1.362-2.952-1.362-5.445-1.362c-2.497,0-4.766-0.229-5.215,0.68c-0.455,0.908-2.952,2.951-4.539,3.406
			c-1.592,0.451-4.537,2.724-3.174,3.171c1.366,0.455,1.366,3.631,0.452,5.441c-0.906,1.818-0.681,4.996-0.229,8.164
			c0.453,3.183,3.182,5.222,5.673,7.263c2.491,2.045,3.404,2.728,5.898,0.906c2.5-1.812,3.394-0.673,4.086-0.451
			c0.674,0.23,2.492-1.137,1.81-3.176c-0.68-2.038,0.913-3.855,2.953-3.629c2.04,0.23,4.986-0.678,6.574-0.452
			c1.591,0.226,2.496,4.534,0,6.351c-2.492,1.814-1.129,4.539-1.588,6.58c-0.452,2.039-2.494,2.492,0,2.492
			c2.501,0,1.822,0.453,3.402,0.68c1.592,0.229,3.178-1.363,4.769-1.592c1.584-0.221,5.667,3.408,4.984,5.227
			c-0.674,1.812-1.356,4.984-1.126,7.932c0.222,2.949,1.126,3.182,1.579,4.084c0.46,0.91,2.273,2.955,4.313,2.047
			c2.038-0.912,4.085-1.592,4.761-2.5c0.689-0.902,4.997,1.588,4.54,2.273c-0.457,0.672,1.587,1.359,2.944,0.672
			c1.362-0.672,2.048-1.812,3.411-3.627c1.355-1.814,3.624-3.396,4.761-3.627c1.134-0.221,3.856-2.949,5.666-2.49
			c1.82,0.447-0.682,2.721-0.906,4.076c-0.22,1.361,0,5.223,0.906,5.449c0.914,0.219,0.46-2.727,1.592-4.764
			c1.133-2.041,3.398-3.184,4.54-3.184c1.127,0,2.039,4.771,3.623,3.412c1.586-1.365,4.764-1.139,5.446,0.221
			c0.678,1.359,1.362,2.041,1.362,2.041s1.134-0.902,1.134-2.041c0-1.135,3.627-2.27,5.899-0.908
			c2.266,1.361,1.363,1.814,2.489,2.047c1.14,0.221,2.269-2.949,2.954-3.182c0.677-0.227,0,3.631-1.59,5.674
			c-1.587,2.049,1.358,1.365,1.358,1.365s0,0,0.678,0.684c0.682,0.676,2.951-0.684,3.862,0.676c0.913,1.361,2.5,1.811,3.857,4.311
			c1.359,2.49,3.404,1.812,6.121,1.359c2.723-0.457,6.129,1.363,8.846,4.312c2.723,2.947,2.274,5.217,4.082,5.217
			c1.821,0,2.266,2.49,2.266,3.396c0,0.904-4.074,2.953-6.348,3.404c-2.269,0.459-2.269,2.73,1.362,2.045
			c3.63-0.682,2.045-2.045,4.31-2.721c2.27-0.682,4.54,0.902,2.5,3.627c-2.05,2.717-6.128,2.943-2.5,3.396
			c3.629,0.457,1.589-0.453,3.629-3.172c2.041-2.717,1.813-1.812,3.182-1.812c1.358,0,4.299,0.682,5.438,1.588
			c1.143,0.908,4.08,2.266,5.901,3.396c1.808,1.139,4.083,0.684,5.439,0.23c1.356-0.451,5.219,1.359,6.58,3.172
			c1.357,1.822,4.769,2.047,6.35,2.727c1.586,0.682,4.084,3.395,4.309,5.672c0.229,2.262-2.494,7.031-2.723,8.166
			c-0.222,1.129-3.85,5.217-7.251,7.936c-3.408,2.721-1.368,5.902-1.138,7.256c0.222,1.361-2.27,6.35-1.586,7.484
			c0.679,1.137-0.912,3.631-2.271,5.221s-2.269,4.529-3.172,5.891c-0.906,1.365-3.857,0.914-6.578,1.594
			c-2.716,0.676-4.087,1.359-4.087,1.359s-4.763,2.271-7.48,4.082c-2.719,1.816,0.902,4.996-0.458,7.486
			c-1.36,2.5-2.722,2.275-4.082,5.217c-1.362,2.951-2.035,0.463-3.18,1.141c-1.13,0.68-1.809,2.492-2.039,4.305
			c-0.222,1.82-2.488,3.629-5.438,6.355c-2.952,2.717-4.77,2.262-7.941,1.359c-3.176-0.908-2.72-8.623-3.176-7.488
			c-0.453,1.135-0.222,5.217,0.229,5.902c0.447,0.678,1.814,3.174,2.947,3.855c1.131,0.678,0.902,1.803,0,2.945
			c-0.908,1.135-3.398,5.221-4.311,5.443c-0.905,0.227-7.935,1.137-9.298,0.457c-1.361-0.68-2.04,1.586-1.816,2.949
			c0.225,1.363,1.363,2.945-1.128,2.492c-2.502-0.451-5.903-2.041-5.903-0.914c0,1.146,0.681,3.637,2.045,3.637
			c1.356,0,2.721-0.908,2.039,0.682s-2.491,2.949-3.403,3.635c-0.905,0.676-2.042,2.936-4.312,4.527
			c-2.27,1.592-2.27,2.494-1.815,3.18c0.458,0.674,3.86,0.225,4.538,0.674c0.684,0.455-0.678,3.635-1.586,4.316
			c-0.906,0.678-4.763,3.852-6.35,4.76c-1.59,0.912-1.59,3.629-1.136,4.992c0.452,1.359,4.08,4.766,6.121,5.443
			c2.049,0.682,6.357,0.447,5.905,1.135c-0.452,0.676-5.446,1.359-6.126,1.588c-0.677,0.223-4.31,1.131-6.128,1.131
			c-1.811,0-5.214-1.814-5.896-1.814c-0.682,0,0.46-0.904,2.726-2.717c2.266-1.82-0.909-3.859-1.361-1.359
			c-0.455,2.484-1.365,3.172-2.496,3.172c-1.138,0-2.495-1.596-3.177-2.275c-0.684-0.672-3.629-1.357-3.177-4.08
			c0.456-2.723-1.356-2.486-2.72-3.629c-1.363-1.129,1.816-2.037,1.364-3.174c-0.458-1.131-2.499-0.453-2.727-2.039
			c-0.225-1.588,1.814-3.859,2.044-4.539c0.224-0.68-1.362-2.039-1.585-3.172c-0.231-1.139,0.903-2.271,2.492-4.078
			c1.587-1.826,2.715-4.086,2.715-4.771c0-0.68-1.128-3.178-1.128-4.986c0-1.814,1.128-2.494,1.59-4.994
			c0.448-2.49-1.59-1.58-1.59-3.627c0-2.043,2.27-1.363,1.816-3.4c-0.458-2.045,1.135-3.41,1.811-4.766
			c0.681-1.363,1.363-3.633,2.272-5.221c0.91-1.586-0.909-5.211-0.909-5.891c0-0.678,2.95-1.588,1.588-2.955
			c-1.357-1.355,0.452-2.494,1.816-3.631c1.361-1.127-0.227-4.309,0.452-8.385c0.682-4.084,1.361-11.117,1.361-11.799
			s0.227-3.406-0.909-5.221c-1.131-1.814-2.49-3.172-4.077-3.852c-1.595-0.686-3.632-2.73-4.771-2.945
			c-1.131-0.232-6.579-2.271-6.579-5.447c0-3.18-3.848-5.674-4.306-7.939c-0.457-2.266-3.851-7.258-4.083-9.523
			c-0.228-2.264-4.991-2.951-5.67-5.451c-0.68-2.494,2.267-4.307,2.718-5.895c0.456-1.59-1.587-4.986-1.81-6.121
			c-0.229-1.135,3.4-4.316,4.762-4.988c1.355-0.684,2.5-3.629,3.396-3.629c0.914,0,0.687-2.5,1.596-4.996
			c0.904-2.492-0.452-5.893-1.137-6.352c-0.676-0.453-1.354-3.4-2.499-4.305c-1.124-0.906-3.394-0.459-3.394-0.459
			s0.453,2.039-1.592,3.182c-2.04,1.129-2.495-0.227-3.175-0.908c-0.679-0.682-3.179-0.91-4.305-2.037
			c-1.139-1.146-2.952-2.729-4.319-3.402c-1.356-0.689-3.4-1.371-3.169-4.088c0.227-2.721-2.953-4.309-3.859-4.762
			c-0.908-0.463-2.724-1.59-3.854-0.91c-1.136,0.68-3.174-1.357-4.766-1.133c-1.587,0.225-4.762-2.725-5.896-3.859
			c-1.132-1.135-2.04-2.727-4.082-2.727c-2.047,0-2.269,0.686-3.633,2.27c-1.358,1.592-3.403-1.125-4.08-1.811
			c-0.681-0.68-2.494-0.906-4.991-0.906s-4.31-3.404-5.215-3.857c-0.908-0.455-7.257-3.404-8.846-4.31
			c-1.588-0.906-3.18-4.313-2.5-5.213c0.68-0.908-1.128-3.855-1.128-3.855s-3.182-3.634-4.314-3.634c-1.13,0-4.761-6.352-6.803-8.16
			c-2.04-1.819-6.803-5.909-7.715-7.948c-0.903-2.039-1.135-5.214-3.395-3.626c-2.272,1.587-0.462,3.177,1.808,4.989
			c2.269,1.816,1.816,3.636,4.991,6.128c3.173,2.5,1.817,4.988,3.173,6.121c1.367,1.135,6.128,3.855,4.09,5.674
			c-2.046,1.812-4.09-2.271-4.993-2.5c-0.906-0.225-2.954-0.678-2.725-2.039c0.232-1.357-1.811-2.498-3.402-4.538
			c-1.586-2.039-2.266-0.905-4.303-0.905c-2.045,0-0.229-2.496,0.899-3.626c1.139-1.137-1.128-2.724-2.49-3.178
			c-1.359-0.461-3.177-5.665-4.992-8.845c-1.819-3.18-3.176-4.76-5.217-4.542c-2.037,0.23-2.947-2.259-4.307-3.167
			c-1.361-0.911-3.405-5.223-5.67-7.488c-2.268-2.271-4.314-6.577-4.085-9.074c0.223-2.495,0.905-8.843,0.905-10.429
			c0-1.591-1.134-5.447-1.134-6.125c0-0.682-1.136-1.817-2.04-2.04c-0.905-0.229-3.405-3.405-5.445-3.405s-3.399-2.268-2.72-3.856
			c0.68-1.586-1.811-4.305-2.949-4.305c-1.132,0-2.949-2.954-3.63-4.539c-0.681-1.592-2.495-1.592-2.039-0.687
			c0.452,0.91-0.228,2.498,0.903,2.955c1.135,0.449,2.049,4.077,1.135,4.529c-0.906,0.46-2.949-1.357-5.214-2.489
			c-2.271-1.134-1.362-5.675-1.362-6.809c0-1.138-3.179-2.267-4.539-2.267c-1.36,0-2.717,0.228-2.943-2.721
			c-0.23-2.952-4.317-4.538-5.679-4.538c-1.356,0-8.619-2.949-10.89-2.949c-2.26,0-6.116-2.044-7.481-1.133
			c-1.358,0.904-3.855-1.592-5.213-1.592c-1.359,0-1.359,0.911-3.859,2.496c-2.495,1.587-3.399,0.681-4.76,1.815
			c-1.357,1.134-4.763,2.271-3.625-0.454c1.124-2.72,1.124-3.177-0.685-2.495c-1.816,0.679-2.27,2.495-2.27,3.632
			c0,1.134-3.174,2.945-3.174,2.945s2.942,0.229,4.088,0c1.124-0.221,0.22,2.498-0.915,3.18c-1.125,0.678-2.723,2.49-4.54,2.041
			c-1.81-0.456-2.036-2.041-3.167-2.271c-1.142-0.229-3.629,1.587-7.713,3.628c-4.087,2.044-3.405,0.456-4.993,1.138
			c-1.585,0.678-7.26,2.722-9.3,2.948c-2.039,0.223-1.594-2.496-0.452-2.496c1.131,0,5.442-2.046,6.576-2.722
			c1.133-0.682,6.126-2.496,7.483-3.174c1.362-0.684,3.63-1.814,2.726-3.175c-0.907-1.362-3.856,0.682-3.856,0.682
			s-2.27-2.044-2.945-2.499c-0.685-0.451-2.047,1.817-2.047,1.817s-2.945-0.453-2.266-2.953c0.678-2.492-1.591-2.492-2.041-1.359
			c-0.458,1.133-4.309,2.949-4.543,1.819c-0.228-1.138-3.625-3.406-4.531-5.224c-0.911-1.811,0.906-2.038,2.946-3.629
			c2.04-1.585,4.991-2.04,7.49-1.808c2.492,0.223,4.08-2.726,3.177-2.957c-0.914-0.225-2.498-0.453-3.859,0.679
			c-1.366,1.144-4.768,0.915-4.768,0.915s-4.986,0-7.028-1.364c-2.042-1.362-3.175-3.403-3.175-3.403s4.082-1.589,7.256-1.812
			L54.549,58.935z M262.324,126.53c2.269,0.249,2.269-2.947,2.044-3.857c-0.226-0.908-0.226-4.757,0.685-5.441
			c0.898-0.682,2.04-2.722,4.533-2.951c2.491-0.226,4.085,1.591,3.852,3.635c-0.226,2.04,0.457,4.08,1.365,4.08
			c0.907,0,3.627-1.59,2.718-2.95c-0.906-1.359,0.679-5.9,0.679-4.309c0,1.588,1.822,2.725,2.955,2.495
			c1.138-0.228-1.133-4.312-2.725-4.536c-1.588-0.229-4.759-0.229-5.44,0c-0.684,0.223-4.54-1.138-6.358-0.91
			c-1.808,0.229-4.531,0.91-5.438,2.723c-0.91,1.816,0,5.216-0.228,6.576C260.745,122.443,260.285,126.304,262.324,126.53z
			 M275.029,126.53c0.52,1.035,2.954,0.229,4.31-1.137c1.36-1.358,4.308-1.811,5.223-2.95c0.895-1.13,1.582-0.9,3.848-1.808
			c2.27-0.91,4.088-1.134,3.178-2.27c-0.908-1.133-5.672,0-6.348-0.449c-0.678-0.454-5.448,4.988-5.448,4.988
			s-4.081,1.586-4.309,2.265C275.256,125.85,274.352,125.168,275.029,126.53z M251.441,109.066c0,1.218,2.264,1.358,3.623,0.68
			c1.365-0.68,3.407-1.131,4.317-1.359c0.904-0.229,0.452,1.128,2.492,1.128c2.044,0,4.538,0.682,5.22,0.46
			c0.681-0.229,2.72-2.949,1.129-3.181c-1.59-0.224-4.08-1.816-5.438-3.17c-1.361-1.361-4.54,1.813-7.492,2.946
			C252.345,107.707,251.441,107.255,251.441,109.066z M158.441,101.579c-1.854-0.615,0.679,2.723,1.811,3.399
			c1.133,0.686,3.401,0.686,3.633,1.816c0.223,1.141,0.906,3.858,2.04,3.629c1.136-0.227,1.136-2.717,0.229-3.629
			c-0.906-0.902-4.308-3.628-4.991-3.628C160.482,103.167,159.12,101.808,158.441,101.579z"/>
		<path fill="#5A3314" d="M270.491,70.43c-0.614,0.677,2.722,1.661,3.327,0.755C274.424,70.282,272.001,68.759,270.491,70.43z"/>
		<path fill="#5A3314" d="M279.267,71.789c-2.414,0.689-0.158,2.417,1.36,1.814C282.134,73.002,281.377,71.185,279.267,71.789z"/>
		<path fill="#5A3314" d="M166.454,34.897c-0.306,0.918,1.358,0.899,3.321,0.899c1.971,0,5.147,0,6.059-0.449
			c0.903-0.45,5.442-1.513,5.294-0.153c-0.159,1.365,1.81,3.477,2.862,3.174c1.067-0.301,3.183-2.266,4.237-1.509
			c1.061,0.757,1.214,2.57,2.272,3.022c1.059,0.452,3.93,0.452,5.291,0c1.359-0.452,5.146-0.452,6.81-0.154
			c1.661,0.311,6.499,1.214,6.954,0.311c0.453-0.909,1.811-1.066,1.962-1.971c0.151-0.909,0.905-3.781,0.905-3.781
			s-0.905-1.662-2.414-0.904c-1.51,0.752-1.972,1.209-3.326,0.904c-1.361-0.301-1.361-2.725-3.781-2.266
			c-2.421,0.451-2.877,1.814-3.629,2.417c-0.757,0.61-2.422,1.056-3.02,0.758c-0.605-0.297-4.089-2.27-4.089-2.27
			s-7.259-0.3-7.557-1.208c-0.309-0.905-1.511-2.416-4.843-2.113c-3.327,0.301-9.074,2.27-9.987,2.27
			c-0.896,0,1.064,1.81-0.146,1.81C168.417,33.684,166.91,33.533,166.454,34.897z"/>
		<path fill="#5A3314" d="M192.162,28.695c-1.75,0.58-1.362,2.267-0.151,2.267c1.207,0,4.241-1.058,5.139-0.302
			c0.911,0.755,3.181,0.152,3.025-0.606c-0.151-0.752,0.907-3.785-0.903-3.934C197.456,25.972,194.888,27.786,192.162,28.695z"/>
		<path fill="#5A3314" d="M212.576,26.727c-0.231,1.077,1.208,1.968,3.023,1.968c1.821,0,5.748-0.909,6.047-0.16
			c0.302,0.766-0.146,1.369,1.968,1.666c2.12,0.307,3.024,0.61,4.234,0.61c1.214,0,0.753-1.971-0.299-3.33
			c-1.063-1.362-0.757-1.205-3.478-1.965c-2.725-0.753-5.452-0.753-7.26-0.607C214.992,25.065,213.028,24.609,212.576,26.727z"/>
		<path fill="#5A3314" d="M215.599,33.684c-1.14,1.001,0,4.081-0.455,4.384c-0.452,0.301,0.154,1.66,1.367,1.362
			c1.211-0.3,1.808-3.175,2.72-3.175c0.908,0,5.596-1.06,6.348,0.604c0.761,1.658,0.761,0.905,2.875,1.06
			c2.115,0.148,3.782-2.114,3.933-2.873c0.147-0.76-1.062-2.271-3.933-1.969C225.58,33.383,216.812,32.625,215.599,33.684z"/>
		<path fill="#5A3314" d="M221.199,41.695c-1.051,0.672-0.458,2.878,1.208,3.024c1.664,0.155,4.537-1.059,4.836-0.146
			c0.305,0.904,1.358,4.989,4.083,3.628c2.724-1.361,2.575-2.573,3.334-2.724c0.749-0.153-0.158-3.481-1.366-4.236
			c-1.211-0.752-5.146-0.299-6.199,0.157C226.032,41.85,222.859,40.64,221.199,41.695z"/>
		<path fill="#5A3314" d="M238.286,43.062c0.177,0.413,1.362,1.203,3.329,0.905c1.96-0.307,4.829-0.607,6.191-0.755
			c1.369-0.149,1.667-2.424,0.158-2.572c-1.52-0.151-2.724-1.51-4.079-1.059C242.518,40.039,237.825,41.997,238.286,43.062z"/>
		<path fill="#5A3314" d="M237.825,36.704c-0.659,1.593,6.059,2.425,5.299,0.609C242.365,35.493,238.586,34.897,237.825,36.704z"/>
		<path fill="#5A3314" d="M239.038,28.993c-1.916-0.461-5.137-1.052-5.137-1.511c0-0.451-0.914,2.122,0.759,2.874
			c1.663,0.755,4.377,2.116,6.347,2.877c1.962,0.752,5.74,0.902,6.957,2.416c1.211,1.511,5.29,2.72,5.29,2.72l4.847,0.46
			c0,0,3.324-0.761,6.798-0.46c3.477,0.303,8.62,0.761,11.494,0.604c2.876-0.144,3.328-1.053,3.632-1.66
			c0.297-0.609-5.291-1.82-6.657-1.665c-1.365,0.148-9.079,0.148-11.34,0c-2.272-0.156-5.146-0.156-6.962,0
			c-1.811,0.148-3.167-1.207-4.533-1.965c-1.356-0.758-4.381-3.175-6.194-3.482C242.518,29.904,242.821,29.904,239.038,28.993z"/>
		<path fill="#5A3314" d="M432.901,60.448c-0.607,1.01-1.812,1.06-0.607,3.177c1.215,2.111,2.119,3.323,3.176,3.174
			c1.058-0.147,4.688-0.305,5.146,0.911c0.452,1.209,1.664,2.269,4.23,1.506c2.571-0.753,4.683-1.203,5.287-2.113
			c0.611-0.907,4.7-1.055,4.7-1.055s3.326-2.578,2.111-3.629c-1.216-1.065-4.079-1.823-5.448-1.971
			c-1.363-0.152-2.722,1.06-5.742,1.06c-3.025,0-4.993,1.207-6.203,0C438.345,60.295,433.35,59.694,432.901,60.448z"/>
		<path fill="#5A3314" d="M299.981,30.507c1.818,1.21,2.874,0.455,5.14,0.908c2.268,0.449,4.082,3.78,5.294,4.233
			c1.208,0.455,2.867,0,3.628-0.908c0.754-0.906,1.81-4.081,1.81-4.081s0,3.024,1.823,3.627c1.812,0.611,6.347-0.452,7.563-0.301
			c1.204,0.149,8.312,1.062,10.278,1.963c1.968,0.911,6.801,1.516,8.166,3.481c1.357,1.962,1.514,8.769,2.266,9.523
			c0.759,0.759,3.321-2.421,3.932-3.169c0.605-0.761,3.781-0.306,4.839,0.749c1.059,1.064,3.471,3.633,3.328,4.693
			c-0.152,1.057-0.606,2.719-1.517,2.112c-0.898-0.6-2.416-0.451-1.811-1.662c0.607-1.21,0.906-3.777-0.302-3.777
			c-1.211,0-2.267,0-2.267,0s-2.27-0.607-3.781,1.664c-1.508,2.268-0.305,4.538,0.758,4.538c1.053,0,3.475,0,3.475,0.597
			c0,0.61-2.569,2.425-2.422,3.484c0.156,1.06,2.116,4.685,2.726,5.444c0.6,0.758,3.779,1.51,4.68,1.663
			c0.915,0.152-2.106,0.299-1.36,1.364c0.764,1.059,1.963,3.622,3.629,4.229c1.666,0.61,6.353,3.326,6.955,4.538
			c0.604,1.208,4.236-0.907,5.001-1.057c0.749-0.148,0.597,3.175,2.718,3.326c2.111,0.146,2.871-0.304,4.688-1.66
			c1.808-1.361,1.357-3.179,1.505-4.537c0.159-1.364,0-2.419,1.967-1.97c1.969,0.448,3.021-0.304,2.875-1.811
			c-0.144-1.514-1.808-3.327,1.358-3.784c3.184-0.455,4.844-2.417,6.814-2.417c1.965,0,7.401,0.753,8.007,0
			c0.604-0.753,3.172-4.236,4.839-4.386c1.669-0.155,6.052-0.455,9.984-1.06c3.933-0.602,8.166-2.87,9.531-2.725
			c1.358,0.151,4.684,0.151,3.626-0.753c-1.057-0.908-2.57-3.021-4.843-3.021c-2.269,0-0.149-3.327,0.451-3.327
			c0.607,0,3.632,0.449,3.485,1.963c-0.15,1.514,0.907,3.477,3.93,2.879c3.021-0.612,2.564-2.879,1.965-3.482
			c-0.6-0.608-1.056-2.124-1.661-3.174c-0.608-1.062-0.459-2.425,2.717-2.727c3.181-0.303,7.568,1.21,7.404-1.207
			c-0.146-2.421,0-4.996,0.913-6.354c0.914-1.359,2.875-2.271,1.817-2.72c-1.059-0.453-2.42,0.605-3.481-1.663
			c-1.053-2.27,0.915-3.935,2.117-4.842c1.213-0.903,7.56-6.806,11.042-7.711c3.474-0.909,5.896-4.389,3.474-5.141
			c-2.417-0.756-7.259-2.118-10.426,0.3c-3.186,2.428-4.992,4.687-8.624,3.933c-3.624-0.753-3.176,0.303-3.326-3.933
			c-0.154-4.233-4.087-11.795-7.256-11.338c-3.179,0.455-3.179,0.455-3.179,0.455s-55.644-0.298-57.467,1.51
			c-1.81,1.811-3.473,6.349-5.134,5.14c-1.662-1.205-1.97-4.229-4.082-3.023c-2.122,1.21-0.158,4.232-1.976,6.351
			c-1.809,2.117-6.952,1.815-8.459,1.06c-1.516-0.752-3.026-1.361-9.076-1.06c-6.049,0.308-12.703,2.117-11.34,3.934
			c1.356,1.813-2.723,2.872-3.782,1.968c-1.057-0.909-5.897,1.055-5.592,2.869c0.303,1.816-0.759,3.935-3.327,3.479
			c-2.575-0.457-4.387,1.062-4.537,2.567c-0.152,1.518-5.899,2.572-6.353,2.572C304.664,28.841,297.26,28.695,299.981,30.507z"/>
		<path fill="#5A3314" d="M268.903,177.342c-0.226,2.259,2.048,1.586,4.769,1.586c2.719,0,7.484-0.454,8.39,0.673
			c0.91,1.144,4.992,2.954,6.122,3.866c1.135,0.902,4.766,1.129,4.986,0.219c0.232-0.902-2.49-3.398-4.082-3.172
			c-1.583,0.23-4.986-1.586-6.794-3.172c-1.818-1.591-5.223-1.591-6.583-1.591C274.352,175.751,268.903,177.342,268.903,177.342z"/>
		<path fill="#5A3314" d="M285.457,170.988c-2.07,0.23-1.58,2.721,0.914,2.268C288.866,172.804,287.505,170.759,285.457,170.988z"/>
		<path fill="#5A3314" d="M286.602,189.781c-2.082,0.37-1.591,4.418,0.904,3.678C289.997,192.727,288.642,189.403,286.602,189.781z"
			/>
		<path fill="#5A3314" d="M316.533,187.281c-2.068,0.374-1.578,4.426,0.912,3.68C319.948,190.227,318.58,186.907,316.533,187.281z"
			/>
		<path fill="#5A3314" d="M295.897,188.227c0,0,2.496,0.451,4.084,0.451c1.586,0,2.495,0.913,3.858,1.589
			c1.356,0.684,3.854-0.904,4.76-0.904c0.904,0,2.04,2.72,2.269-0.228c0.228-2.954-2.722-4.313-4.535-4.767
			c-1.816-0.455-3.857,0-5.218,0.227C299.75,184.823,295.897,188.227,295.897,188.227z"/>
		<path fill="#5A3314" d="M485.978,143.77c0.909-0.449,4.534-1.589,6.581-2.494c2.044-0.91,8.619-3.18,9.521-3.18
			c0.911,0,12.246,0.231,13.84-0.456c1.59-0.679,5.678-1.81,7.482,3.18c1.814,4.989,0,3.18-1.805,4.08
			c-1.826,0.909,0.677,2.949,1.579,2.949c0.904,0,4.08,2.952,5.667,2.952c1.593,0,5.449,1.587,5.449,1.587s3.849,2.949,5.898,2.949
			c2.037,0,3.635,1.59,5.896-0.68c2.258-2.27,5.215-4.995,7.482-4.539c2.271,0.456,4.769,2.27,7.71,2.27
			c2.95,0,8.396-0.456,9.308,0.679c0.911,1.136-6.123,4.992-5.675,5.901c0.457,0.902,1.362,0.678,3.636-2.041
			c2.26-2.725,5.669-2.725,8.383-3.407c2.73-0.679,4.093,3.626,4.545,4.989c0.446,1.361,2.491,3.859,4.073,6.807
			c1.596,2.952,3.179,7.031,5,10.206c1.812,3.18,2.947,7.944,4.764,9.983c1.816,2.043,3.404,5.445,4.528,8.169
			c1.144,2.717,3.866,5.438,4.769,5.668c0.912,0.225,4.766,5.439,4.991,6.797c0.224,1.363-1.359,4.318,2.261,4.539
			c3.64,0.232,6.806-1.59,7.946-2.041c1.136-0.451,9.982-3.855,11.114-2.498c1.14,1.363-1.589,7.264-1.812,8.854
			c-0.232,1.586-6.812,9.303-7.038,11.338c-0.22,2.049-4.08,5.676-6.571,6.125c-2.501,0.453-7.718,6.807-9.533,8.848
			c-1.816,2.041-4.764,6.574-6.127,7.027c-1.356,0.461-1.809,5.219-1.124,6.129c0.675,0.908,0.22,6.354,2.268,8.164
			c2.034,1.818,2.723,3.17,1.811,4.766c-0.911,1.58,0.457,5.213,0,8.166c-0.457,2.939-2.954,6.807-3.858,7.711
			c-0.904,0.91-6.576,2.5-8.388,4.762c-1.821,2.271-3.404,4.311-2.956,5.445c0.452,1.139,2.273,6.807,2.038,8.164
			c-0.215,1.365-4.526,3.178-6.345,4.078c-1.811,0.92-0.897,2.725-0.451,4.545c0.451,1.807-3.174,4.766-4.765,6.348
			c-1.595,1.588-5.904,7.031-8.854,9.07c-2.942,2.045-6.348,3.629-9.297,3.406c-2.938-0.229-8.618,0-9.747,1.135
			c-1.143,1.139-2.723,0.908-4.996-0.225c-2.265-1.139-2.495-2.723-2.709-5.221c-0.24-2.5-0.915-4.086-0.915-4.086
			s-0.68-3.85-2.732-5.662c-2.036-1.822-2.722-3.861-3.843-5.229c-1.134-1.357-0.455-4.305-0.686-6.795
			c-0.23-2.504-1.588-6.348-2.714-7.939c-1.143-1.59-3.41-5.9-4.322-7.49c-0.904-1.59-2.04-4.758-1.814-9.293
			c0.234-4.537,3.401-7.033,5.221-8.4c1.819-1.355,0.228-3.172-1.358-5.889c-1.588-2.725,0.227-7.27-1.136-8.844
			c-1.361-1.598-5.895-9.988-8.397-11.352c-2.5-1.361-2.716-1.809-1.354-4.986c1.354-3.182,0-6.354,2.269-8.391
			c2.269-2.039,1.131-3.402-1.36-4.764c-2.501-1.359-1.585-2.041-3.637-0.453c-2.045,1.588-4.757,2.494-6.34,0.908
			c-1.593-1.596-1.141-4.09-4.093-5.9c-2.942-1.812-6.799,0.676-7.935,1.131c-1.135,0.457-4.31,2.498-7.493,2.955
			c-3.167,0.453-5.437-0.232-8.62-0.232c-3.167,0-5.898,0.232-6.348,1.816c-0.448,1.584-1.126,2.5-3.169,0.91
			c-2.044-1.588-6.127-5.223-6.127-5.223s-5.67-4.527-6.806-7.262c-1.132-2.715-3.174-4.533-7.482-6.576
			c-4.312-2.039-1.816-4.309-2.271-6.572c-0.449-2.271-2.722-3.178-1.587-3.406c1.138-0.225,0.913-1.814,3.397-4.99
			c2.504-3.17,0.913-6.58,0.46-8.392c-0.46-1.814-2.72-4.533-0.46-7.48c2.27-2.956,4.541-9.302,6.35-11.115
			c1.822-1.819,6.363-4.316,8.848-5.447c2.497-1.141,0.912-4.078,2.269-7.484c1.365-3.403,3.41-4.992,4.085-4.992
			c0.682,0,3.199-2.354,5.9-3.85C480.304,142.861,485.07,144.221,485.978,143.77z M585.104,236.998
			c-0.608-0.984-4.538-0.686-5.222,0.455c-0.67,1.135-1.359,6.344,0.684,6.803C582.604,244.707,586.235,238.811,585.104,236.998z"/>
		<path fill="#5A3314" d="M626.378,270.564c-2.833-0.809-3.169,2.949-5.435,5.447c-2.276,2.484-4.769,4.525-5.67,4.311
			c-0.915-0.232-5.898,1.586-4.312,4.982c1.58,3.398,1.363,6.812-0.23,8.395c-1.59,1.59,1.356,6.125,0.916,8.621
			c-0.467,2.496,0.678,4.084,3.854,4.084c3.166,0,4.307-1.139,5.667-4.084c1.358-2.951,1.583-5.896,2.947-8.391
			c1.359-2.496,2.5-7.717,3.176-9.072c0.678-1.365,2.042-5.676,1.819-8.166C628.878,274.195,627.969,271.02,626.378,270.564z"/>
		<path fill="#5A3314" d="M708.714,212.27c-1.464,0.65-2.722,8.393,0,9.299c2.73,0.912,4.318-3.629,3.413-4.76
			C711.216,215.676,710.767,211.361,708.714,212.27z"/>
		<path fill="#5A3314" d="M517.739,127.662c-2.144,0-3.182,3.41-1.82,4.542c1.352,1.128,2.725,0.908,3.852-0.683
			C520.916,129.932,518.868,127.662,517.739,127.662z"/>
		<path fill="#5A3314" d="M500.496,131.291c-0.547,0.863,1.816,1.142,2.268,0.23C503.218,130.612,502.079,128.799,500.496,131.291z"
			/>
		<path fill="#5A3314" d="M527.481,135.153c-0.824,0.489,1.361,2.04,2.497,2.487c1.146,0.456,2.043,1.821,2.958,2.044
			c0.907,0.229,3.848,0,2.943-2.266c-0.902-2.266-2.943-2.266-3.627-2.266C531.578,135.153,528.627,134.473,527.481,135.153z"/>
		<path fill="#5A3314" d="M473.273,89.33c-2.055,0.341-2.272,2.5-3.627,2.5c-1.365,0-2.95,0.452-2.493,2.037
			c0.45,1.588,1.356,2.721,0,3.404c-1.36,0.676,0.222,3.404,2.037,3.628c1.811,0.227,3.858-1.131,5.443-1.811
			c1.588-0.682,3.859-2.04,3.859-4.083c0-2.048-0.453-3.861-1.365-4.766C476.222,89.33,474.634,89.104,473.273,89.33z"/>
		<path fill="#5A3314" d="M475.773,82.527c-1.837,0.612-1.14,2.944-0.233,4.08c0.911,1.133,2.5,3.631,4.764,4.537
			c2.271,0.91,7.035,1.813,5.223,2.723c-1.819,0.91-4.997,3.404-5.445,4.761c-0.462,1.362,3.855,2.726,3.855,2.726
			s-1.362,1.588-0.23,2.04c1.136,0.456,1.819-1.585,3.631-1.585c1.808,0,5.443,1.134,7.264,1.134c1.811,0,4.757-2.498,4.533-4.085
			c-0.229-1.586-2.5-4.08-4.533-4.99c-2.044-0.91-4.316-4.991-5.673-5.897c-1.365-0.906,1.357-3.178-0.229-4.757
			c-1.589-1.593-2.723-1.363-4.54-2.499c-1.808-1.138-3.399,0.229-4.541,1.585C478.493,83.658,477.128,82.07,475.773,82.527z"/>
		<path fill="#5A3314" d="M490.742,114.055c-0.23-2.04-4.764-3.857-7.712-4.308c-2.948-0.453-2.5-1.811,0.678-2.04
			c3.179-0.231,2.953-1.359,5.665-1.814c2.729-0.455,5.456-1.137,7.494-1.362c2.041-0.229,2.041-2.044,2.041-3.405
			c0-1.358,5.669-1.816,5.669-1.816s3.179-2.941,4.994-4.306c1.812-1.363,4.987-1.138,7.484-0.457
			c2.491,0.679-0.231-1.591-1.136-2.717c-0.91-1.138-0.231-3.638,0.463-4.996c0.673-1.363,4.763-2.043,5.892-1.584
			c1.128,0.449,0,2.49,0.222,4.309c0.234,1.816,2.043,2.949,2.043,2.949l1.813-0.226c0,0,0,0,2.952,0
			c2.949,0,2.039,1.816,4.309,1.133c2.268-0.682,4.989-1.585,5.903-2.04c0.896-0.458,3.396-0.458,6.795,0.678
			c3.406,1.134,1.594-2.042,2.271-3.861c0.684-1.814,2.037-4.98,4.308-4.763c2.27,0.229,4.094,1.591,5.904,0.46
			c1.807-1.137-3.405-2.723-3.405-3.404c0-0.682,4.308-0.682,8.164-0.91c3.857-0.226,6.124,0,7.946-0.451
			c1.806-0.451-1.361-3.632-2.048-3.632c-0.679,0-5.221,0.454-7.49,0.229c-2.265-0.229-4.759,1.359-6.802,1.813
			c-2.04,0.452-2.492-2.725-3.631-4.085c-1.138-1.36-1.589-3.851,1.361-5.214c2.952-1.356,8.171-4.311,9.071-5.675
			c0.909-1.359-3.622-1.129-7.933-0.907c-4.311,0.23,0.685,1.364-3.409,5.448c-4.071,4.082-6.116,1.36-9.294,4.082
			c-3.184,2.716-0.912,2.946,2.049,3.857c2.938,0.905,0.452,3.632-0.231,4.308c-0.674,0.678-4.084,3.178-3.626,4.992
			c0.452,1.805-2.274,2.949-2.274,2.949s-8.398,1.813-9.985,2.04c-1.58,0.229-2.04-1.138-1.58-2.496
			c0.451-1.363-1.826-4.536-2.039-6.575c-0.235-2.045-3.628,0.907-3.866,2.268c-0.225,1.362-4.537,1.583-7.024,0.685
			c-2.5-0.913-3.864-4.313-3.398-4.998c0.449-0.678-1.363-4.083-1.363-4.992c0-0.901,4.985-4.53,9.286-5.441
			c4.326-0.902,9.759-6.127,12.708-8.388c2.958-2.271,4.313-4.993,5.227-5.673c0.894-0.685,16.557-4.768,22.229-5.674
			c5.66-0.904,18.148,1.138,20.182,1.59c2.046,0.45,3.177,1.127,8.172,2.948c4.988,1.816,9.297,1.816,12.463,2.272
			c3.181,0.451,5.221,1.356,7.271,2.266c2.037,0.912,0,1.593-5.003,3.173c-4.986,1.589-8.388,1.137-11.103,0.229
			c-2.729-0.91-4.312-0.91-2.271,0.449c2.034,1.362,1.358,2.045,1.583,4.083c0.228,2.046,3.403,0.23,4.085-0.225
			c0.684-0.45,0.684-1.362,3.183,0.225c2.489,1.594,3.396,0.679,4.523,0.454c1.141-0.223,0.235-2.718,0.912-3.626
			c0.679-0.911,3.409-0.911,4.091-1.36c0.68-0.452,2.262-1.13,3.619-1.362c1.355-0.227,1.138,2.041,2.506,2.723
			c1.354,0.677,0.678-2.95,0.215-3.85c-0.449-0.912-0.9-3.404-0.215-4.09c0.678-0.682,5.44-1.135,6.57-0.224
			c1.136,0.91-1.808,3.629-1.13,5.214c0.687,1.589,2.266-0.9,3.403-2.267c1.134-1.36,3.625,0,7.707-0.679
			c4.084-0.682,3.176-2.953,7.478-1.588c4.321,1.361,3.184,1.361,4.549,0c1.361-1.365,3.854,0.23,6.342-0.68
			c2.497-0.911,2.497,0,4.322,0.91c1.811,0.902,4.076-1.821,4.985-2.726c0.907-0.912,4.532-0.912,6.351-0.679
			c1.817,0.224,4.08,1.358,5.892,1.358c1.82,0,4.766,1.36,4.766,1.36s3.857,1.363,4.773,0.456c0.898-0.912-0.23-2.044-3.636-3.637
			c-3.405-1.579-2.043-4.299,0-4.528c2.045-0.229,1.812-1.361,3.405-2.268c1.583-0.905,3.629-4.31,5.436-3.634
			c1.818,0.682,3.41,2.044,5.683,3.177c2.259,1.134,0.22,2.725-0.232,3.855c-0.447,1.138,0.452,5.443,1.13,6.122
			c0.688,0.688-0.678,3.179-2.49,4.314c-1.814,1.132-4.317,3.63-3.625,4.082c0.666,0.451,6.115-2.042,6.115-2.042
			s3.413-4.081,4.992-5.212c1.59-1.142,3.178-1.142,3.627,0.226c0.456,1.356,2.95,1.811,5.219,0.905
			c2.275-0.905,0-1.586-0.219-3.628c-0.237-2.047-3.857-0.908-5.909-0.458c-2.042,0.458-3.628,2.5-4.297,2.5
			c-0.697,0-0.697-1.366-0.239-3.412c0.46-2.038-0.901-3.167-0.901-4.299c0-1.14,0.68-1.14,2.268-3.402
			c1.591-2.274,1.591,1.582,1.813,3.622c0.229,2.041,1.816,1.143,3.174,0.912c1.36-0.23,0.686-2.952,1.819-4.311
			c1.132-1.367,3.633-1.59,5.892,0.456c2.27,2.042,2.036,1.358,4.767,2.266c2.723,0.908,2.954,1.135,3.183,3.178
			c0.222,2.041,2.038,2.265,3.171,1.579c1.129-0.677,0.226-3.397-0.458-4.299c-0.675-0.909-6.124-2.497-7.947-4.087
			c-1.803-1.589,0.913-1.589,2.965-1.589c2.041,0,5.895,0.228,5.895,0.228s4.306-0.908,6.574-2.499
			c2.271-1.582,3.859-1.582,6.127-2.489c2.262-0.912,5.9-0.912,8.167-0.452c2.266,0.452,3.85-0.909,6.127-1.818
			c2.267-0.904,4.763-1.588,5.442-1.133c0.683,0.453,6.337,1.812,7.248,1.592c0.909-0.231,2.952-0.907,6.58-2.275
			c3.632-1.36,2.044-1.129,3.4-1.814c1.364-0.678,3.635-0.904,8.398,1.138c4.76,2.045,0,0,1.359,1.36
			c1.355,1.36,2.037-0.229,5.22-0.684c3.177-0.448,5.219,0,7.257,0.229c2.043,0.226,6.58,0.226,8.616,1.588
			c2.049,1.358-1.353,4.31-2.494,5.215c-1.137,0.909,1.812,1.589,2.731,1.361c0.898-0.226,8.386,0,11.785,0.455
			c3.412,0.453,4.767,2.042,6.353,2.042c1.591,0,4.085-0.676,4.994-1.589c0.907-0.908,6.574-1.359,8.39-1.584
			c1.813-0.228,6.809,0,7.493,0.45c0.683,0.455,1.358,2.723,1.358,4.537c0,1.82,2.036,3.402,3.624,3.631
			c1.592,0.229,4.537-2.72,5.667-3.176c1.139-0.455,2.494,2.043,3.176,1.365c0.68-0.681,6.355,0.22,8.63-0.909
			c2.265-1.134,3.616,0,4.762-0.457c1.122-0.455,2.946-2.945,2.946-3.858c0-0.908,0.905-1.584,0-2.944
			c-0.912-1.361-4.092-0.458-7.49-1.361c-3.401-0.908-0.218-2.268,1.135-3.178c1.366-0.904,3.625,0,5.897,0.459
			c2.262,0.451,1.363-0.684,2.498-0.684c1.139,0,5.213,1.134,7.479,1.134s4.087,2.492,4.087,2.492s-6.353,1.813-7.712,1.813
			c-1.356,0-0.457,1.815,0.687,1.815c1.131,0,2.72,0.685,4.307,1.817c1.585,1.136,8.615,0,9.521,0c0.911,0,3.64,1.136,6.354,2.72
			c2.72,1.59,4.537,2.271,4.537,2.271s3.853,0,7.708-0.454c3.856-0.458,8.854-0.458,9.758,0.224c0.903,0.68,3.404,1.359,5.215,2.949
			c1.808,1.59,3.175,0.911,5.676,0.678c2.495-0.229,4.986-0.678,7.256-0.678c2.271,0,9.75-0.229,11.112,1.818
			c1.354,2.042,2.949,1.587,2.949,1.587s2.046-3.634,2.949-4.314c0.911-0.681,3.859,0.461,5.67,1.357
			c1.817,0.912,10.655,0,12.933,0.462c2.263,0.45,5.446,2.719,3.632,4.536c-1.821,1.81,1.362,4.993,0.679,6.799
			c-0.679,1.821-2.5,2.043-4.311,2.496c-1.819,0.454,1.811,2.725,3.405,4.316c1.589,1.589-0.912,2.04-2.503,1.36
			c-1.586-0.681-5.671,0.229-10.892,1.588c-5.214,1.361-7.257,4.079-12.696,4.305c-5.443,0.229-3.178-0.226-9.975-0.226
			c-6.809,0-6.58,1.813-7.946,4.085c-1.359,2.267,0.684,1.813,0,3.624c-0.676,1.818-1.812,3.859-1.812,5.449
			c0,1.584-4.088,1.816-5.446,3.175c-1.364,1.365-3.627,4.765-7.486,7.255c-3.853,2.497-6.575,6.358-6.575,6.358
			s0.686-3.861,2.491-6.58c1.814-2.72-2.039-6.581-2.269-9.529c-0.223-2.948,1.141-3.86,3.4-6.58
			c2.271-2.716,7.72-3.631,9.986-4.984c2.271-1.367,11.577-7.712,11.577-7.712s-1.827,1.129-4.084,2.041
			c-2.283,0.899-4.997,2.72-6.812,2.72c-1.823,0-1.13-1.821-1.362-3.632c-0.231-1.809-4.54-0.451-6.132,1.36
			c-1.583,1.817-4.532,2.95-7.699,5.224c-3.181,2.268-2.274,2.04-4.317,2.268c-2.044,0.225-5.445-1.138-7.026-2.268
			c-1.591-1.138-3.18,0.902-8.168,1.13c-4.989,0.223-10.667-0.455-12.933-0.229c-2.269,0.229-7.938,6.803-11.345,7.94
			c-3.398,1.132-7.709,3.176-6.571,4.766c1.14,1.584,3.173-1.364,4.088-1.364c0.904,0-0.684,3.181,1.358,3.181
			c2.037,0,3.158-1.142,5.217-1.365c2.04-0.226,3.634,1.585,4.079,4.082c0.458,2.494-0.9,4.537-1.81,7.715
			c-0.909,3.176-2.27,6.345-5.901,9.071c-3.627,2.723-9.525,7.71-10.659,9.071c-1.138,1.362-5.223,0.23-5.9-0.677
			c-0.672-0.911-2.715,2.04-4.31,2.72c-1.588,0.677-3.174,2.042-3.174,3.858c0,1.817-4.531,1.817-4.531,2.947
			c0,1.132,2.726,4.31,3.851,5.898c1.127,1.588-0.236,6.582-2.27,7.71c-2.044,1.13-2.937,2.492-5.672,0.912
			c-2.721-1.591-0.446-2.503,0.691-4.995c1.129-2.494-1.138-3.854-1.598-4.534c-0.453-0.682-2.269,1.357-3.171,1.583
			c-0.909,0.231-0.909-2.042-0.229-3.403c0.677-1.36-0.456-4.302-1.132-4.529c-0.683-0.232-4.993,3.397-6.805,3.168
			c-1.826-0.22-0.232-4.306,0.449-5.44c0.688-1.134-1.358-0.23-2.72,0.907c-1.366,1.133-4.31,3.634-5.45,3.405
			c-1.132-0.23-3.399,1.81-1.579,3.169c1.813,1.362,2.491,2.496,3.626,2.723c1.129,0.231,4.08-0.456,5.219-0.677
			c1.129-0.226,3.401,1.588,1.129,3.628c-2.268,2.045-7.026,2.274-6.114,3.636c0.896,1.359,3.17,3.396,4.985,6.573
			c1.811,3.173,1.129,6.575,1.593,9.071c0.447,2.498-6.578,7.712-8.624,9.3c-2.046,1.592-4.086,5.443-7.489,7.263
			c-3.407,1.813-10.664,3.398-11.794,2.712c-1.137-0.673-4.313,1.144-4.083,3.634c0.221,2.492,1.812,2.271,1.812,2.947
			c0,0.682-2.273,3.409-3.171,4.539c-0.91,1.133-4.091,0-3.629-3.402c0.456-3.404,2.719-4.764,2.489-6.35
			c-0.221-1.582-2.268-2.495-3.62-1.133c-1.369,1.357-5.676,5.215-5.676,5.215s1.594,4.085,3.629,5.669
			c2.047,1.592,3.399,3.852,6.129,7.26c2.714,3.402,0.678,6.352,0,8.852c-0.683,2.492-2.951,2.492-4.769,2.941
			c-1.814,0.453-2.273,1.139-2.955,2.496c-0.673,1.365-3.848,2.947-4.311,1.818c-0.442-1.139-3.391-3.861-3.391-3.861
			s-2.048-4.086-4.991-6.123c-2.948-2.041-4.082-2.945-4.082-0.902c0,2.041-1.815,5.889-1.815,7.258
			c0,1.355-4.095-4.088-4.095-6.355c0-2.264-0.675-6.123-0.449-9.752c0.237-3.631-4.761-0.227-4.761-0.227s-2.268,3.855-3.395,3.855
			c-1.142,0-1.594-3.18-1.373-5.896c0.231-2.72-1.122-5.22-1.813-6.126c-0.678-0.906-4.531-4.531-5.209-7.029
			c-0.681-2.495-2.04-1.586-3.399-0.226c-1.367,1.359-0.915,1.359-6.35,1.359c-5.452,0-5.227,3.405-7.956,5.444
			c-2.715,2.043-4.977,5.894-8.158,7.255c-3.178,1.363-4.536,2.723-4.536,4.311c0,1.586,0,5.666-0.673,7.938
			c-0.685,2.273-1.137,5.449-2.722,7.715c-1.598,2.27-2.949,5.896-4.315,5.896c-1.355,0-1.819-3.168-1.819-5.217
			c0-2.043-3.848-6.807-4.763-8.395c-0.909-1.588-4.306-8.617-4.306-8.617s-2.723-7.484-2.487-9.529
			c0.216-2.041,0.216-7.71,0.216-7.71s-3.629,3.63-5.219,3.401c-1.584-0.227-3.167-2.719-2.95-5.666
			c0.228-2.956-2.716-2.728-4.306-3.181c-1.585-0.453-3.628-4.531-4.76-4.531c-1.146,0-1.817,0-2.729,1.359
			c-0.899,1.357-5.668,1.133-6.807,1.133s-7.936-0.232-9.974-0.91c-2.042-0.68-4.309-4.764-5.448-5.211
			c-1.124-0.453-4.527,2.49-5.891,2.039c-1.36-0.449-4.087-2.726-7.037-4.082c-2.944-1.359-3.849-4.536-4.99-6.577
			c-1.13-2.039-4.988,1.132-4.543,3.398c0.461,2.269,5.452,5.222,5.452,6.812c0,1.582,0.912,2.039,3.403,4.08
			c2.5,2.037,0.453,3.174,2.037,3.626c1.591,0.453,3.856-1.817,6.134-2.95c2.263-1.135,2.034-2.717,3.169-2.717
			c1.142,0,0.902,2.943,2.721,3.171c1.815,0.228,6.577,2.949,7.716,4.767c1.141,1.813-1.139,2.947-2.04,4.529
			c-0.911,1.591-3.627,6.126-5.903,7.947c-2.272,1.809-4.755,4.303-8.162,4.981c-3.401,0.686-3.856,2.5-6.579,2.727
			c-2.715,0.229-10.205,3.859-11.338,4.541c-1.135,0.678-7.262,2.492-9.074,1.814c-1.82-0.684-2.499-5.221-3.178-8.623
			c-0.683-3.395-1.582-5.218-2.262-6.576c-0.682-1.358-4.768-4.988-5.681-5.672c-0.904-0.679-3.165-6.124-3.399-8.392
			c-0.229-2.271-2.72-1.365-3.175-3.855c-0.454-2.498-2.951-5.898-3.4-7.49c-0.45-1.589-4.993,0.229-6.803,0.459
			c-1.819,0.224-5.218-1.359-4.763-4.995c0.448-3.621,2.266-3.621,4.534-3.621c2.27,0,1.36-1.139,3.628-3.41
			c2.265-2.268,2.953-6.796,3.168-9.749c0.235-2.951-1.586-1.593-3.396-1.135c-1.812,0.452-4.539,1.135-5.443,0.905
			c-0.909-0.225-4.532-1.363-5.21-0.68c-0.697,0.68-4.543,0.226-5.445-0.907c-0.92-1.134-5.45-2.495-5.907-3.401
			c-0.453-0.909,0-6.349-0.905-7.713c-0.903-1.362-2.946,0.228-4.089,1.133c-1.128,0.91-4.3,1.589-3.395,2.272
			c0.909,0.678,3.854,2.039,3.632,3.851c-0.237,1.815-2.271,2.273-3.403,3.177c-1.134,0.906-3.403,2.269-4.088,1.134
			c-0.68-1.134-2.951-6.124-3.637-7.034c-0.673-0.899-2.713-3.168-3.389-5.212c-0.683-2.042-3.181-2.727-4.766-4.313
			c-1.589-1.583-6.129-4.082-7.938-5.891c-1.817-1.815-4.997-3.179-5.224-0.912c-0.223,2.272,3.181,2.721,4.549,4.992
			c1.358,2.269,4.302,3.626,5.893,4.308c1.587,0.678,5.902,3.628,5.902,3.628s-1.82,0.68-3.405,0.458
			c-1.595-0.227-0.231,2.722-0.452,4.302c-0.231,1.59-1.828,1.59-2.274-0.22c-0.457-1.819-1.817-3.86-2.719-4.541
			c-0.91-0.679-6.807-2.495-7.716-2.951c-0.913-0.452-4.763-2.946-5.21-4.986c-0.452-2.04-3.857-2.271-4.773-1.812
			c-0.904,0.451-4.309,2.94-5.893,2.94c-1.583,0-4.084-1.129-5.909-1.359c-1.804-0.223-2.031,2.951-2.709,4.765
			c-0.686,1.816-3.631,0.452-5.214,2.044c-1.589,1.59-4.317,3.176-3.638,4.539c0.686,1.36,1.818,1.36-0.222,2.492
			c-2.048,1.131-3.183,3.403-5.221,3.628c-2.041,0.23-4.757,1.134-5.897,0.453c-1.138-0.677-2.039,2.273-2.723,2.953
			c-0.673,0.684-1.816-2.042-2.947-3.176c-1.141-1.134-4.084-0.23-4.989-0.455c-0.908-0.228-1.815-2.272-2.952-3.176
			c-1.134-0.909-0.906-2.949,0-3.627c0.907-0.683,1.81-1.813,1.137-3.858c-0.685-2.042-1.137-6.581,1.135-7.479
			c2.267-0.912,7.711,0,10.426,0c2.73,0,7.392,0.939,8.165-0.462C490.512,118.365,490.965,116.101,490.742,114.055z M576.26,74.13
			c-0.774,2.141,5.216,3.857,6.345,2.27C583.744,74.811,577.385,70.961,576.26,74.13z M568.548,129.027
			c0.45,0.905,2.716-1.365,4.531-1.365c1.806,0,5.896,0.684,7.034-0.904c1.131-1.59,4.76-1.815,7.713-1.365
			c2.949,0.457,5.44,2.499,7.486,2.727c2.042,0.226,7.482-0.228,9.297-0.683c1.807-0.456,1.358-3.631-1.591-5.214
			c-2.94-1.588-5.44-4.082-8.164-4.992c-2.724-0.906-3.633-1.817-2.042-2.27c1.592-0.452,3.629-2.266,1.361-2.266
			c-2.267,0-4.308,0.679-4.543,1.813c-0.215,1.135-1.586,2.495-2.486,2.952c-0.909,0.454-3.178,2.264-3.858,0.903
			c-0.682-1.361-3.173-5.446-4.311-5.669c-1.13-0.229-2.943,0-4.309,2.266c-1.363,2.27-2.95,4.54-4.314,5.444
			c-1.354,0.907-3.171,3.629-1.805,4.084C569.9,124.943,568.548,129.027,568.548,129.027z M620.49,113.145
			c-2.748,1.838-3.635,4.316-2.498,5.9c1.136,1.589,4.307,6.577,5.895,7.032c1.588,0.452,7.257,1.36,4.991,3.404
			c-2.263,2.04-2.717,2.723-4.763,2.492c-2.043-0.224-1.135,5.445,0.458,5.896c1.588,0.458,6.349,2.044,7.931,2.268
			c1.592,0.229,6.812-0.453,6.578-1.81c-0.224-1.366-1.13-6.807-2.94-8.164c-1.823-1.365,2.494-2.727,1.354-3.86
			c-1.135-1.135-2.715-0.682-3.628-2.04c-0.909-1.361-1.364-2.722-2.725-3.629c-1.354-0.91-2.485,0.908-2.266-1.589
			c0.232-2.496,3.403-4.084,4.764-2.72c1.356,1.361,5.44,0.679,6.354,0c0.911-0.681-1.821-2.723-2.5-4.088
			c-0.678-1.361-5.215-2.49-5.895-2.04c-0.68,0.456-2.491,1.818-4.311,2.948C625.475,114.281,621.853,112.237,620.49,113.145z"/>
		<path fill="#5A3314" d="M646.565,48.953c-1.668,1.682-5.206,1.133-7.707-0.228c-2.497-1.359-5.444-1.583-6.797-2.041
			c-1.363-0.449,0.22-3.174,1.807-3.854c1.588-0.676,5.897-2.723,9.084-4.085c3.162-1.356,4.074-4.078,6.341-4.078
			c2.27,0,13.154-2.271,14.516-1.814c1.367,0.456,7.933,0.904,9.309-0.912c1.355-1.814,6.117-0.677,4.986,0.912
			c-1.137,1.583-5.223,5.214-7.943,4.535c-2.716-0.685-10.431-0.453-13.836,0c-3.405,0.45-6.58,2.493-9.529,4.084
			c-2.953,1.59-2.271,3.402-1.131,3.626C646.795,45.325,647.924,47.596,646.565,48.953z"/>
		<path fill="#5A3314" d="M876.117,94.099c-1.31,0.37-5.215-0.458-3.854,2.717c1.357,3.173,1.592,5.447,1.357,7.939
			c-0.219,2.5,0,7.711,0.457,8.39c0.452,0.685,2.264,2.27,3.406,1.816c1.126-0.452-0.458-4.986-0.458-5.895
			c0-0.908,1.584-2.271,2.501-2.496c0.904-0.223,0-4.084-1.149-5.672c-1.127-1.589-2.719-2.493-1.805-2.723
			c0.911-0.229,2.037-2.037,1.358-2.498C877.25,95.227,877.702,93.641,876.117,94.099z"/>
		<path fill="#5A3314" d="M873.854,117.231c-1.682,0.413-2.269,2.724-2.269,3.403c0,0.678-6.349,2.038-4.314,3.855
			c2.04,1.814,4.091,0.454,7.258,0.226c3.173-0.226,6.126-1.133,6.126-1.133s4.762,0.224,4.086-2.04
			c-0.685-2.267-5.671-2.497-6.58-2.267C877.25,119.501,875.658,116.779,873.854,117.231z"/>
		<path fill="#5A3314" d="M868.634,126.078c-1.674,1.004-0.681,4.995-2.042,7.715c-1.354,2.72-2.5,5.214-3.397,5.214
			c-0.911,0-5.674,1.813-7.038,3.174c-1.367,1.357-7.933-1.134-8.836,0c-0.914,1.14-2.726,2.501-3.865,3.4
			c-1.133,0.909-4.307,0.229-3.627,2.952c0.681,2.722,2.267,5.217,3.627,5.217c1.367,0,3.183-0.908,3.183-3.406
			c0-2.494,3.171,0,4.76-0.225c1.591-0.225,2.495-1.817,3.168-3.629c0.687-1.808-0.901,0.911,1.817,1.588
			c2.731,0.68,3.629-1.137,3.629-1.819c0-0.679,4.992-1.809,5.903-2.49c0.905-0.678,4.538-1.812,4.769-2.723
			c0.219-0.909,0-6.125,1.134-6.574c1.124-0.458,2.712-0.458,0.903-3.63C870.902,127.662,870.902,124.716,868.634,126.078z"/>
		<path fill="#5A3314" d="M818.734,170.759c-3.364,0.522-5.443,7.715-2.728,7.485C818.734,178.019,821.678,170.31,818.734,170.759z"
			/>
		<path fill="#5A3314" d="M958.683,331.359c-0.906,0.445,0,2.945,0.911,3.842c0.912,0.914,1.363,4.09,1.126,4.996
			c-0.214,0.91-4.079,2.047-2.263,3.186c1.819,1.131,5.219,0,4.76,1.352c-0.448,1.361-2.26,3.184-0.223,3.629
			c2.047,0.453,2.719-1.592,3.632-3.17c0.911-1.59,1.59-2.949,3.167-3.855c1.588-0.904,0-2.951-0.903-2.951
			c-0.909,0-1.353,1.137-3.404,0c-2.034-1.135-1.582-0.686-2.938-2.947C961.181,333.166,960.957,330.221,958.683,331.359z"/>
		<path fill="#5A3314" d="M956.865,345.873c-0.36,1.098-2.259,1.361-3.62,2.49c-1.357,1.137,0,1.592-3.854,3.863
			c-3.867,2.268-8.627,4.754-9.53,6.795c-0.902,2.045,0.903,3.184,4.534,3.41c3.629,0.225,2.721,0.904,5.221-1.826
			c2.491-2.711,4.765-4.295,7.711-6.566c2.95-2.271,2.95-5.676,2.95-5.676S957.094,345.193,956.865,345.873z"/>
		<path fill="#5A3314" d="M881.109,347.686c-2.5,2.494,2.506,2.494,1.822,4.994c-0.682,2.494,3.4,1.586,4.531,1.135
			c1.129-0.461,3.854-5.676,3.393-7.043c-0.447-1.357-4.983,2.273-6.114,2.045C883.615,348.594,881.109,347.686,881.109,347.686z"/>
		<path fill="#5A3314" d="M864.552,329.996c0-2.316-1.357,2.49-2.269,0.451c-0.912-2.041,0.911-5.447-1.358-4.088
			c-2.265,1.365-3.404,2.498-3.633,3.637c-0.227,1.133-4.304,1.58-4.085,0.451c0.23-1.139,1.819-3.859,0.23-4.988
			c-1.592-1.139-4.311-1.592-6.354-2.27c-2.044-0.684,0.236-2.951-5.217-1.824c-5.446,1.141-7.48,2.502-7.48,2.502
			s-5.001-1.592-6.577,0.225c-1.592,1.818-3.858,5.217-3.858,5.217s-6.345,0.234-7.717,0.461c-1.361,0.227-3.632,2.035-5.663,2.717
			c-2.048,0.68-5.451,1.361-6.807,0.23c-1.364-1.141-3.633-3.174-2.947-4.531c0.678-1.365,5.664-3.186,3.851-5.455
			c-1.815-2.262-2.941-2.721-3.173-4.078c-0.234-1.363,0.677-2.043-2.037-4.764c-2.726-2.723-2.042-5.902-0.913-6.35
			c1.137-0.457-0.688-3.174-1.582-4.311c-0.913-1.139-0.913-5.219,0.894-6.359c1.825-1.127,7.264-5.436,8.853-5.436
			c1.593,0,4.082,0.684,5.669-0.457c1.592-1.129,6.356-0.676,6.356-1.588c0-0.9,0.454-4.531,1.583-5.664
			c1.138-1.143,5.9-2.275,6.583-3.188c0.68-0.902,1.812-4.756,3.172-5.438c1.368-0.682,2.506-2.264,4.55,0
			c2.032,2.27,4.081,3.182,4.97,0.912c0.917-2.268,0.236-1.594,2.275-3.633c2.043-2.041-0.229-5.443,1.815-3.408
			c2.041,2.049,3.401,3.633,3.401,3.633s-0.216-4.531,1.14-4.531c1.359,0,2.72,2.266,3.396,2.266c0.684,0,6.811-1.367,7.947,0.227
			c1.127,1.584-3.184,5.895-1.591,7.486c1.591,1.584,4.765,2.486,7.028,3.857c2.268,1.359,4.983,4.535,6.122,1.816
			c1.137-2.729,3.403-6.807,1.815-8.85c-1.579-2.039,0.46-8.621,1.136-9.08c0.687-0.443,1.817,5.225,4.084,7.719
			c2.27,2.498,4.539,4.312,5.671,7.023c1.136,2.73,1.355,7.492,3.398,9.078c2.041,1.59,6.127,1.59,5.896,3.631
			c-0.218,2.043,4.54,5.898,7.034,9.758c2.494,3.861,2.724,12.248,2.724,15.877c0,3.625-2.724,8.393-4.766,11.115
			c-2.04,2.721-2.72,6.348-3.626,7.705c-0.905,1.363-0.455,1.137-3.854,2.045c-3.407,0.91-5.896,3.637-6.806,2.727
			c-0.9-0.908-4.082-2.494-4.991-1.365c-0.91,1.137-2.043,3.627-3.631,0.906c-1.59-2.723-5.223-2.268-5.898-2.723
			c-0.678-0.453-0.678-1.812-0.678-4.09c0-2.26-2.944-2.484-3.181-3.17C865.237,331.359,864.552,330.676,864.552,329.996z"/>
		<path fill="#5A3314" d="M969.111,285.531c2.958,1.133,8.171-4.082,6.129-4.758C973.202,280.09,969.111,285.531,969.111,285.531z"
			/>
		<path fill="#5A3314" d="M940.315,296.869c-0.446,2.209-3.179,1.141-4.534-0.9c-1.367-2.039-4.092-3.629,0-2.723
			C939.86,294.158,940.537,295.742,940.315,296.869z"/>
		<path fill="#5A3314" d="M749.096,222.93c-2.815,0.562,4.082,5.451,4.768,6.129c0.68,0.678,6.803,5.898,6.803,8.395
			c0,2.492,4.079,8.387,5.215,9.293c1.134,0.908,6.809,4.309,7.715,6.127c0.91,1.814,2.95,2.275,2.95-0.229
			c0-2.496,0.451-5.443,1.579-6.805c1.139-1.363,0.682-3.404-1.128-3.174c-1.813,0.229-3.401-2.951-6.354-4.988
			c-2.949-2.049-5.22-3.404-7.935-6.35c-2.718-2.947-6.125-4.766-7.938-6.357C752.945,223.381,750.228,222.705,749.096,222.93z"/>
		<path fill="#5A3314" d="M757.938,210.912c-1.803,0.221-1.803,3.631-0.911,4.764c0.911,1.133,2.737,0.453,3.863,4.535
			c1.137,4.086,3.408,8.17,4.308,9.752c0.909,1.586,4.771,3.855,6.133,4.994c1.359,1.129,3.391-0.459,2.5-1.822
			c-0.909-1.355-2.734-3.398-2.963-4.986c-0.224-1.586-1.361-4.084-3.173-6.807c-1.813-2.721-3.396-3.402-4.534-5.213
			C762.026,214.307,757.938,210.912,757.938,210.912z"/>
		<path fill="#5A3314" d="M776.997,253.783c-1.649,2.062,0.452,3.629,1.128,4.08c0.682,0.451,3.179,0.904,5.452,0.676
			c2.264-0.225,5.435-0.904,2.945-2.262c-2.497-1.361-5.446,0-6.351-1.816C779.264,252.645,777.907,252.645,776.997,253.783z"/>
		<path fill="#5A3314" d="M790.152,255.596c-1.592,0.682-4.08,1.127-2.271,2.719c1.813,1.59,2.955,2.264,5.673,2.043
			c2.72-0.229,6.805,1.363,7.031,0c0.231-1.357-2.5-3.404-3.623-3.404C795.825,256.953,790.152,255.596,790.152,255.596z"/>
		<path fill="#5A3314" d="M812.378,263.08c-0.507,2.027,3.405,2.953,3.629,0.684C816.234,261.492,812.835,261.268,812.378,263.08z"
			/>
		<path fill="#5A3314" d="M824.408,264.67c0.351,2.482,4.978-1.361,4.978-1.361s3.64-0.457,3.64-2.041
			c0-1.59-3.64-3.633-4.993-1.818C826.669,261.268,824.181,263.08,824.408,264.67z"/>
		<path fill="#5A3314" d="M814.42,239.264c-1.356,0.451-1.129,1.596-1.585,3.852c-0.457,2.27-2.491,3.855-0.678,4.994
			c1.812,1.137,5.216-3.854,6.124-2.27c0.907,1.592-0.231,2.27,1.362,4.309c1.585,2.045,4.537,1.812,4.537,1.812
			s-0.229-5.441-2.726-6.801c-2.497-1.363-4.082-2.947-1.138-2.494c2.948,0.449,4.543-0.678,3.863-2.037
			c-0.681-1.365-4.992-0.684-6.363-0.455C816.457,240.395,814.42,239.264,814.42,239.264z"/>
		<path fill="#5A3314" d="M815.783,234.725c-1.58,1.588-0.452,3.18,2.034,2.953c2.5-0.225,7.72-0.906,8.852-0.906
			c1.141,0,2.717-2.953,1.819-2.953c-0.908,0-7.26,1.139-7.939,1.365C819.866,235.408,815.783,234.725,815.783,234.725z"/>
		<path fill="#5A3314" d="M838.915,231.549c-2.077-0.887-5.89,7.484-3.169,8.166C838.466,240.395,840.509,232.229,838.915,231.549z"
			/>
		<path fill="#5A3314" d="M807.847,219.527c-0.093-1.604-3.634,0.453-3.865,2.041c-0.217,1.594,2.5,2.947-1.81,2.947
			c-4.315,0-4.534,3.406-5.439,4.09c-0.907,0.682-1.812,0.902-3.641,1.357c-1.806,0.457-2.255,2.266-2.709,3.404
			c-0.462,1.131-3.628-2.039-4.542-1.139c-0.908,0.906-0.221,5.225,1.363,8.852c1.587,3.627,5.67,5.891,6.8,5.891
			c1.134,0,3.412,0,5.002,0.461c1.58,0.447,6.796,0.9,6.577-1.141c-0.236-2.035-0.686-5.211,1.582-7.258
			c2.27-2.035,4.538-3.17,3.406-6.123c-1.137-2.947-3.406-4.762-1.821-6.119c1.594-1.365,3.407-1.82,3.407-2.951
			C812.157,222.705,808.302,227.018,807.847,219.527z"/>
		<path fill="#5A3314" d="M818.958,187.549c-1.585,0,0.23,2.496-2.037,4.087c-2.266,1.58-4.764,2.258-3.406,4.982
			c1.358,2.725,6.129,4.764,4.983,5.898c-1.125,1.137-4.528,3.404-4.983,5.445c-0.451,2.037,5.443-3.18,7.034-5.225
			c1.589-2.037,4.761-0.898,5.447-2.037c0.673-1.133,0.673-1.133,0.673-1.133s-2.488-0.455-4.531-1.135
			c-2.045-0.682-4.531,1.818-3.403-1.814c1.132-3.627,4.531-2.943,3.855-5.668C821.911,188.227,819.644,187.549,818.958,187.549z"/>
		<path fill="#5A3314" d="M820.999,207.283c-0.769,0.281-2.718,4.309-0.218,4.309c2.484,0,6.799,0.678,5.888-0.459
			C825.766,210,823.5,206.371,820.999,207.283z"/>
		<path fill="#5A3314" d="M828.488,203.885c-0.908-0.07-3.864,4.754,0.224,4.529C832.794,208.188,831.659,204.104,828.488,203.885z"
			/>
		<path fill="#5A3314" d="M829.166,212.27c-3.17,4.092-2.948,3.184-5.215,2.273c-2.273-0.908-5.901,2.037-5.217,3.174
			c0.677,1.135,5.674-0.227,6.803,1.811c1.132,2.041,1.132,2.271,3.403,1.814c2.271-0.455,4.54-3.625,3.854-5.213
			C832.123,214.543,829.166,212.27,829.166,212.27z"/>
		<path fill="#5A3314" d="M844.595,239.033c-1.704,1.703-2.5,1.826,1.36,2.5c3.854,0.68,4.988,0.68,3.398,2.49
			c-1.585,1.816-2.716,4.086-1.361,4.309c1.361,0.232,5.445-0.9,5.9,0c0.453,0.914-0.904,1.135,3.628,1.816
			c4.531,0.688,5.446,2.277,6.352,3.18c0.899,0.904,3.626,3.855,1.817,3.855c-1.817,0-3.861,2.266-2.495,2.494
			c1.357,0.227,5.439-0.678,5.672,0c0.223,0.68,2.496,4.992,4.754,4.766c2.274-0.234,3.63-4.314,4.757-5.443
			c1.149-1.137,5.68-1.816,6.132,0.223c0.459,2.045,1.823,4.086,4.544,5.447c2.72,1.363,5.894,2.721,6.124,1.584
			c0.222-1.133-1.365-5.439-3.186-6.125c-1.809-0.68-4.979-4.533-4.979-6.129c0-1.574-2.722-2.039-4.08-3.164
			c-1.368-1.135-2.501-4.316-5.906-4.996s-4.305-1.816-7.937-3.627c-3.636-1.818-11.797-1.818-12.023-0.68
			c-0.22,1.133,0,0-2.72-0.904c-2.727-0.914-4.763,0-5.439-1.596C848.224,237.453,846.638,236.998,844.595,239.033z"/>
	</g>
</g>
</svg>
